<?xml version="1.0" encoding="utf-8"?>
<!-- Generator: Adobe Illustrator 22.0.1, SVG Export Plug-In . SVG Version: 6.00 Build 0)  -->
<svg version="1.1" id="Layer_1" xmlns="http://www.w3.org/2000/svg" xmlns:xlink="http://www.w3.org/1999/xlink" x="0px" y="0px"
	 viewBox="0 0 276.5 253.3" style="enable-background:new 0 0 276.5 253.3;" xml:space="preserve">
<style type="text/css">
	.st0{fill:#FFDEAE;stroke:#000000;stroke-linecap:round;stroke-linejoin:round;stroke-miterlimit:10;}
	.st1{fill:#86CDD5;stroke:#000000;stroke-linecap:round;stroke-linejoin:round;stroke-miterlimit:10;}
	.st2{fill:none;stroke:#000000;stroke-linecap:round;stroke-linejoin:round;stroke-miterlimit:10;}
	.st3{fill:#FAB616;stroke:#000000;stroke-linecap:round;stroke-linejoin:round;stroke-miterlimit:10;}
	.st4{fill:#398ACA;stroke:#000000;stroke-linecap:round;stroke-linejoin:round;stroke-miterlimit:10;}
	.st5{fill:#BC61A6;stroke:#000000;stroke-linecap:round;stroke-linejoin:round;stroke-miterlimit:10;}
	.st6{fill:#862A87;stroke:#000000;stroke-linecap:round;stroke-linejoin:round;stroke-miterlimit:10;}
	.st7{fill:#FFDEAE;stroke:#808285;stroke-width:2;stroke-linecap:round;stroke-linejoin:round;stroke-miterlimit:10;}
	.st8{fill:none;stroke:#808285;stroke-width:3;stroke-linecap:round;stroke-linejoin:round;stroke-miterlimit:10;}
	.st9{fill:#EA1088;stroke:#862A87;stroke-width:4;stroke-linecap:round;stroke-linejoin:round;stroke-miterlimit:10;}
	.st10{fill:#FAB616;stroke:#862A87;stroke-width:4;stroke-linecap:round;stroke-linejoin:round;stroke-miterlimit:10;}
	.st11{fill:#862A87;}
</style>
<path class="st0" d="M129,100v12l7.5,5.5l11.5-7L142,96l-3.3,1l-1.4-4.7c0,0,5.2-0.8,7.7-5.3s4.5-10.5,4.5-10.5s2.5,1.5,3.5-3
	s-4.5-6-4.5-6l-11-15.5l-19-2.5L117.6,68l-0.1,2c0,0-4.5-3.5-4.5,1.5s4.5,7.5,4.5,7.5s1,6.5,4.5,9s7.5,4.5,7.5,4.5L129,100l-6,9l6,3
	l0,0"/>
<path class="st1" d="M114.8,67.2l35.3,0.8l0.3,2.5c0,0-1.8-0.5-2,0.3s-0.2,7.2-7.3,7.2c-5.8,0-4.7-6.7-7.9-6.7s-1.5,6.5-8.3,6.8
	c-6.8,0.3-7.5-8.6-8.2-8.6c-0.4,0-1.2,0.3-1.7-0.4C114.6,68.3,114.8,67.2,114.8,67.2z"/>
<path class="st2" d="M131.9,72.1l-1.8,9.5c0,0,2.3,1.5,2.9,1.8"/>
<path class="st2" d="M131.6,87.6c0.8,0,1.9,0,1.9,0"/>
<path class="st3" d="M114.1,68.5c0,0-2.2-16.3,0.2-20.5s8.5-7.3,17-7.4s14.3,1.1,17.3,5.8c3.1,4.7,4.5,5,4.1,11.1
	c-0.4,6.1-1.3,11.6-1.3,11.6s-5.4-4.7-10.1-5.1c-4.7-0.4-13.3-1.6-16.6-5.1s-4.2-4.5-4.2-4.5s0.1,5.8-1.5,8.2
	C117.5,64.9,114.1,68.5,114.1,68.5z"/>
<path class="st0" d="M115.3,103c0,0-11.3,20.5-13.8,21.5s-28.5-19-28.5-19l6-9.5c0,0,0.5-10.5-1.5-10S74,88.5,74,88.5l-0.5,4l-2-7
	L62,96l4.5,10l2.5,5c0,0,24,25,28,25.5s20.5-13.8,20.5-13.8L115.3,103z"/>
<path class="st0" d="M155,96.3l29.5-11l-6-44.5l2-8l4.5,6.5l-1.5-11.5l10,6c0,0,1.5,2-1.5,8s-5.5,8-5.5,8s8,30,8,35s-1,6.5-3.5,9
	s-33,15.5-33,15.5l-9,4l-1.5-13L155,96.3z"/>
<path class="st4" d="M129,106.8c0,0,3.5,5,7,5s6.5-6.5,6.5-6.5l6,40.5l-8.5,8l-9.5-3L129,106.8z"/>
<polygon class="st5" points="114.5,102.3 128.5,99.8 134,151.8 116.5,155.3 "/>
<path class="st5" d="M141.5,95.8l4,51.5l15-0.5l-2.5-37.5c0,0-8.5-0.5-8-6.5s5-6.5,5-6.5L141.5,95.8z"/>
<polygon class="st4" points="90,193.8 80.5,234.3 94,238.8 101,205.8 90,191.3 "/>
<polygon class="st4" points="194,189.8 204.5,236.3 190,241.8 184,210.8 "/>
<polygon class="st6" points="92,237.8 91.5,250.8 84,250.3 84,242.3 76.5,248.3 58,249.3 59,239.8 73,237.8 80.5,234.3 "/>
<polygon class="st6" points="190,241.8 189.5,250.8 197.5,250.8 197.5,245.3 208,248.8 224,245.3 223,237.8 206.5,240.8 
	204.5,236.3 "/>
<line class="st7" x1="72" y1="93.6" x2="85.2" y2="50"/>
<line class="st7" x1="185" y1="39.3" x2="170.7" y2="2.1"/>
<line class="st8" x1="79.5" y1="184.3" x2="80.5" y2="251.8"/>
<line class="st8" x1="208" y1="192.3" x2="207.5" y2="250.8"/>
<path class="st3" d="M74,190.3c10.1,3.7,28,3,30.5-1s-13-13-25.5-16.5s-27-2-28.5,2S57.5,184.3,74,190.3z"/>
<path class="st3" d="M220,192.8c11-5.9,19.5-16,18.5-22s-22.5,0-28.5,3.5s-24.5,15-23.5,21.5S213.5,196.3,220,192.8z"/>
<path class="st9" d="M165.5,151.8c0,0,8.4-12.7,21-20c15.5-9,31-4.5,31-4.5l21,43.5c0,0-16.5-3.5-28.5,3.5s-23.5,21.5-23.5,21.5
	L165.5,151.8z"/>
<path class="st9" d="M61,137.8c0,0,10-4,28,0.5s25.5,13.5,25.5,13.5l-9,35.5c0,0-6-10.5-26.5-14.5s-28.5,2-28.5,2L61,137.8z"/>
<line class="st2" x1="67.5" y1="168.8" x2="76" y2="136.8"/>
<line class="st2" x1="99" y1="143.8" x2="91" y2="175.8"/>
<line class="st2" x1="205.5" y1="124.8" x2="226" y2="168.3"/>
<line class="st2" x1="178" y1="137.8" x2="200.5" y2="180.3"/>
<line class="st8" x1="35" y1="105.3" x2="35" y2="250.8"/>
<polyline class="st8" points="64,248.8 34,220.3 7,247.8 "/>
<polyline class="st8" points="50.5,248.3 79.5,220.8 111.5,250.3 "/>
<line class="st8" x1="99" y1="249.8" x2="112.5" y2="236.3"/>
<line class="st8" x1="175.5" y1="237.3" x2="188.5" y2="251.3"/>
<circle class="st10" cx="143.5" cy="194.3" r="52.5"/>
<polyline class="st8" points="178.5,248.8 208,221.8 237.5,248.8 "/>
<polyline class="st8" points="216.5,249.3 243.5,221.3 275,249.8 "/>
<ellipse class="st3" cx="219.5" cy="98.8" rx="34.5" ry="6.5"/>
<line class="st8" x1="264.5" y1="128.8" x2="220.5" y2="99.8"/>
<line class="st8" x1="244" y1="116.3" x2="244.5" y2="248.8"/>
<polygon class="st3" points="0.5,121.8 36,113.8 69,120.8 "/>
<polygon class="st3" points="2,125.8 66.5,125.3 33.5,132.8 "/>
<polygon class="st3" points="0.5,148.3 36,140.3 69,147.3 "/>
<polygon class="st3" points="4,151.3 68.5,150.8 35.5,158.3 "/>
<polygon class="st11" points="158.1,195.3 152.7,206.9 159.1,217.9 146.5,216.3 138,225.8 135.6,213.3 123.9,208.2 135,202 
	136.3,189.3 145.6,198 "/>
<g>
	<g>
		<path class="st11" d="M107.3,194.5c-0.1,0.1-0.2,0-0.2-0.1c-0.4-1.2-0.6-1.9-1-3.1c-0.1-0.4-0.1-0.6,0-0.7
			c0.9-0.6,1.3-0.9,2.2-1.4c-0.9-3.1-1.3-4.7-2.2-7.8c-0.9,0.6-1.4,0.8-2.3,1.4c-0.2,0.1-0.3,0.1-0.4-0.1c-0.4-1.1-0.5-1.7-0.9-2.8
			c-0.1-0.4-0.1-0.6,0-0.7c6.1-4,9.2-5.6,15.5-8.1c1.9-0.7,4.4,0.2,4.7,2.6c0.3,2.1-0.9,4-1.5,4.9c0.5,0.2,2.3,0,2.8,3.2
			c0.5,3.6-1.9,5.1-2.2,5.2C116,189.2,113,190.7,107.3,194.5z M112.1,180.5c1.6-0.8,2.4-1.2,4-1.9c0.3-0.1,0.7-0.8,0.6-1.4
			c-0.1-0.6-0.9-0.9-1.3-0.7c-1.5,0.7-2.3,1-3.8,1.8C111.8,179.2,111.9,179.6,112.1,180.5z M113.5,186.4c1.4-0.7,2.1-1,3.5-1.7
			c0.6-0.3,1.1-0.8,0.9-1.5c-0.2-0.8-0.9-1-1.3-0.8c-1.5,0.6-2.2,1-3.6,1.7C113.2,185,113.3,185.5,113.5,186.4z"/>
		<path class="st11" d="M131.5,184.2c-3.5,0.7-6.2-1.3-6.7-4.4c-0.6-4.3,2.7-6.9,5.8-7.6c0.5-0.1,0.8-0.2,1.3-0.3
			c2-0.4,6.4,0.6,6.6,5.2c0.2,5.5-4.3,6.5-5.4,6.8C132.5,184,132.1,184.1,131.5,184.2z M129.9,178.5c0.2,1.6,1.1,2.5,2.1,2.3
			c1-0.2,1.8-1.4,1.7-3c-0.1-1.8-1.3-2.5-2.2-2.3C130.5,175.6,129.7,176.8,129.9,178.5z"/>
		<path class="st11" d="M145.5,182.8c-3.5,0-6-2.6-6.1-5.9c-0.2-4.4,3.4-6.3,6.5-6.2c0.5,0,0.8,0,1.3,0c2,0.1,6.2,2,5.9,6.6
			c-0.3,5.5-4.9,5.5-6.1,5.5C146.4,182.9,146.1,182.8,145.5,182.8z M144.4,176.8c0,1.6,0.8,2.7,1.8,2.7c1,0,1.9-0.9,1.9-2.6
			c0-1.8-1.1-2.8-1.9-2.8C145.4,174.1,144.4,175.1,144.4,176.8z"/>
		<path class="st11" d="M161.7,185.1c-0.1,0-0.1-0.2-0.1-0.4c0.1-1.1,0.2-1.7,0.4-2.8c0-0.2,0.1-0.3,0.2-0.2
			c0.6,0.2,0.9,0.3,1.5,0.4c0.1-0.5,0.1-0.8,0.2-1.3c0.3-2.4,0.4-3.7-1.4-4.2c-1.9-0.5-2.2,2.1-2.4,3.9c0,0.2,0,0.3-0.1,0.6
			c0.6,0.1,0.8,0.2,1.4,0.4c0.1,0,0.1,0.2,0.1,0.3c-0.1,1.2-0.2,1.8-0.4,2.9c0,0.2-0.1,0.2-0.2,0.2c-3-0.8-4.5-1.1-7.6-1.5
			c-0.1,0-0.1-0.2-0.1-0.3c0.1-1.2,0.1-1.7,0.2-2.9c0-0.1,0.1-0.2,0.1-0.2c0.8,0.1,1.1,0.2,1.9,0.3c0.2-2,0.2-3,0.4-5
			c-0.8-0.1-1.1-0.2-1.9-0.3c-0.1,0-0.2-0.1-0.2-0.3c0.1-1.1,0.1-1.7,0.2-2.8c0-0.3,0.1-0.4,0.2-0.4c2.6,0.4,3.9,0.6,6.6,1.2
			c0.1,0,0.1,0.1,0.1,0.3c-0.1,0.8-0.1,1.2-0.2,2c0,0,0,0,0,0c0.9-1.8,2.1-1.8,2.9-1.5c1.3,0.4,1.9,0.6,3.2,1
			c0.8,0.3,1.9,1.6,2.1,3.3c1.1-1.6,2.1-1.8,3.1-1.4c1.2,0.5,1.8,0.7,2.9,1.3c2.4,1.1,2.3,3.2,1.8,5.5c-0.4,1.6-0.6,2.4-1,3.9
			c0.7,0.4,1,0.5,1.7,0.9c0.1,0.1,0.1,0.2,0.1,0.2c-0.3,1.1-0.4,1.7-0.7,2.9c0,0.2-0.1,0.2-0.1,0.2c-2.9-1.6-4.3-2.3-7.3-3.5
			c-0.1-0.1-0.1-0.2-0.1-0.4c0.2-1.1,0.3-1.6,0.5-2.7c0-0.2,0.1-0.2,0.2-0.2c0.6,0.2,0.9,0.4,1.5,0.6c0.1-0.5,0.2-0.8,0.3-1.3
			c0.5-2.2,0.5-3.7-1.2-4.4c-1.3-0.5-2.2,1.1-2.4,2.3c-0.1,0.7-0.2,1.1-0.3,1.9c0.6,0.2,0.9,0.3,1.5,0.6c0.1,0,0.1,0.2,0.1,0.3
			c-0.2,1.2-0.3,1.7-0.5,2.9c0,0.2-0.1,0.2-0.2,0.2C166.1,186.4,164.6,185.9,161.7,185.1z"/>
		<path class="st11" d="M186.9,179.1c0.1,0.1,0.1,0.2,0.1,0.4c-0.1,0.2-3,8.5-3.1,8.6c-0.1,0.4-0.3,0.4-0.4,0.4
			c-1.3-0.8-2-1.3-3.3-2c-0.1-0.1-0.1-0.3-0.1-0.5c0-0.1,2-9,2.1-9.2c0.1-0.3,0.2-0.3,0.3-0.3C184.3,177.5,185.2,178,186.9,179.1z
			 M183.4,189.8c0.1,0.1,0.1,0.2,0,0.4c-0.5,1.6-0.8,2.4-1.3,4.1c0,0.1-0.2,0.1-0.3,0.1c-1.4-0.9-2-1.3-3.4-2.1
			c-0.1-0.1-0.1-0.2,0-0.5c0.4-1.6,0.7-2.4,1.1-4c0-0.1,0.2-0.2,0.3-0.2C181.3,188.4,182,188.8,183.4,189.8z"/>
	</g>
</g>
</svg>
