<?xml version="1.0" encoding="utf-8"?>
<svg version="1.1" class="icon_click" id="drums" xmlns="http://www.w3.org/2000/svg" xmlns:xlink="http://www.w3.org/1999/xlink" x="0px" y="0px"
	 viewBox="0 0 72 72" style="enable-background:new 0 0 72 72;" xml:space="preserve">
<style type="text/css">
	.st0{fill:#5E2384;}
	.st1{fill:none;stroke:#FDB914;stroke-width:2.3;stroke-miterlimit:10;}
</style>
<circle id="background" class="st0" cx="36" cy="36" r="36"/>
<path id="iconStroke" class="st1" d="M36,53.3c-7.3,0-13.3-6-13.3-13.3s6-13.3,13.3-13.3s13.3,6,13.3,13.3S43.3,53.3,36,53.3z
	 M24,34.1L11,32.2V43l11.7,1.5 M11,51.1l6.2-7.2 M22.7,54.3l3.8-4.9 M17.5,33.2v-15 M11.6,21.4l11.7,6.2 M49.3,44.5L61,43V32.2
	L48,34.1 M61,51.1L54.8,44 M49.3,54.3l-3.8-4.9 M54.5,33.2v-15 M60.4,21.4l-11.7,6.2 M42.3,22.3H29.6H36v4.4"/>
</svg>
