<?xml version="1.0" encoding="utf-8"?>
<!-- Generator: Adobe Illustrator 22.0.1, SVG Export Plug-In . SVG Version: 6.00 Build 0)  -->
<svg version="1.1" id="Layer_1" xmlns="http://www.w3.org/2000/svg" xmlns:xlink="http://www.w3.org/1999/xlink" x="0px" y="0px"
	 viewBox="0 0 84 84" style="enable-background:new 0 0 84 84;" xml:space="preserve">
<style type="text/css">
	.st0{fill:#F9B617;}
	.st1{fill:#E91989;}
	.st2{fill:none;stroke:#E91989;stroke-width:2.3;stroke-miterlimit:10;}
	.st3{fill:none;stroke:#E91989;stroke-width:2.3;stroke-linecap:round;stroke-linejoin:round;stroke-miterlimit:10;}
</style>
<g>
	<circle class="st0" cx="42" cy="42" r="39"/>
	<path class="st1" d="M42,6c19.9,0,36,16.1,36,36c0,19.9-16.1,36-36,36C22.1,78,6,61.9,6,42C6,22.1,22.1,6,42,6 M42,0
		C18.8,0,0,18.8,0,42s18.8,42,42,42s42-18.8,42-42S65.2,0,42,0L42,0z"/>
</g>
<g id="drums_x5F_group_2_">
	<circle class="st2" cx="42" cy="46" r="13.3"/>
	<polyline class="st3" points="30,40.1 17,38.2 17,49 28.7,50.5 	"/>
	<line class="st3" x1="17" y1="57.1" x2="23.2" y2="50"/>
	<line class="st3" x1="28.7" y1="60.3" x2="32.5" y2="55.3"/>
	<line class="st3" x1="23.5" y1="39.2" x2="23.5" y2="24.2"/>
	<line class="st3" x1="17.6" y1="27.4" x2="29.4" y2="33.6"/>
	<polyline class="st3" points="54,40.1 67,38.2 67,49 55.3,50.5 	"/>
	<line class="st3" x1="67" y1="57.1" x2="60.8" y2="50"/>
	<line class="st3" x1="55.3" y1="60.3" x2="51.5" y2="55.3"/>
	<line class="st3" x1="60.5" y1="39.2" x2="60.5" y2="24.2"/>
	<line class="st3" x1="66.4" y1="27.4" x2="54.6" y2="33.6"/>
	<polyline class="st3" points="42,32.7 42,28.3 35.6,28.3 48.3,28.3 	"/>
</g>
</svg>
