<?xml version="1.0" encoding="utf-8"?>
<!-- Generator: Adobe Illustrator 22.0.1, SVG Export Plug-In . SVG Version: 6.00 Build 0)  -->
<svg version="1.1" id="Layer_1" xmlns="http://www.w3.org/2000/svg" xmlns:xlink="http://www.w3.org/1999/xlink" x="0px" y="0px"
	 viewBox="0 0 72 72" style="enable-background:new 0 0 72 72;" xml:space="preserve">
<style type="text/css">
	.st0{fill:#F9B617;}
	.st1{fill:none;stroke:#E91989;stroke-width:2.3;stroke-miterlimit:10;}
	.st2{fill:none;stroke:#E91989;stroke-width:2.3;stroke-linecap:round;stroke-linejoin:round;stroke-miterlimit:10;}
</style>
<circle class="st0" cx="36" cy="36" r="36"/>
<g id="drums_x5F_group_1_">
	<circle class="st1" cx="36" cy="40" r="13.3"/>
	<polyline class="st2" points="24,34.1 11,32.2 11,43 22.7,44.5 	"/>
	<line class="st2" x1="11" y1="51.1" x2="17.2" y2="44"/>
	<line class="st2" x1="22.7" y1="54.3" x2="26.5" y2="49.3"/>
	<line class="st2" x1="17.5" y1="33.2" x2="17.5" y2="18.2"/>
	<line class="st2" x1="11.6" y1="21.4" x2="23.4" y2="27.6"/>
	<polyline class="st2" points="48,34.1 61,32.2 61,43 49.3,44.5 	"/>
	<line class="st2" x1="61" y1="51.1" x2="54.8" y2="44"/>
	<line class="st2" x1="49.3" y1="54.3" x2="45.5" y2="49.3"/>
	<line class="st2" x1="54.5" y1="33.2" x2="54.5" y2="18.2"/>
	<line class="st2" x1="60.4" y1="21.4" x2="48.6" y2="27.6"/>
	<polyline class="st2" points="36,26.7 36,22.3 29.6,22.3 42.3,22.3 	"/>
</g>
</svg>
