<?xml version="1.0" encoding="utf-8"?>
<!-- Generator: Adobe Illustrator 22.0.1, SVG Export Plug-In . SVG Version: 6.00 Build 0)  -->
<svg version="1.1" id="Layer_1" xmlns="http://www.w3.org/2000/svg" xmlns:xlink="http://www.w3.org/1999/xlink" x="0px" y="0px"
	 viewBox="0 0 380 294.9" style="enable-background:new 0 0 380 294.9;" xml:space="preserve">
<style type="text/css">
	.st0{fill:#398ACA;stroke:#000000;stroke-linecap:round;stroke-linejoin:round;stroke-miterlimit:10;}
	.st1{fill:#EA1088;stroke:#000000;stroke-linecap:round;stroke-linejoin:round;stroke-miterlimit:10;}
	.st2{fill:#FFDEAE;stroke:#000000;stroke-linecap:round;stroke-linejoin:round;stroke-miterlimit:10;}
	.st3{fill:#BC61A6;stroke:#000000;stroke-linecap:round;stroke-linejoin:round;stroke-miterlimit:10;}
	.st4{fill:none;stroke:#6D6E71;stroke-width:2;stroke-linecap:round;stroke-linejoin:round;stroke-miterlimit:10;}
	.st5{fill:#862A87;stroke:#000000;stroke-linecap:round;stroke-linejoin:round;stroke-miterlimit:10;}
	.st6{fill:#FAB616;stroke:#000000;stroke-width:0.9295;stroke-linecap:round;stroke-linejoin:round;stroke-miterlimit:10;}
	.st7{fill:none;stroke:#000000;stroke-linecap:round;stroke-linejoin:round;stroke-miterlimit:10;}
	.st8{fill:#FAB616;stroke:#000000;stroke-linecap:round;stroke-linejoin:round;stroke-miterlimit:10;}
	.st9{fill:#FFFFFF;stroke:#000000;stroke-linecap:round;stroke-linejoin:round;stroke-miterlimit:10;}
	.st10{fill:#398ACA;}
</style>
<polygon class="st0" points="305.2,259.6 305.8,284.3 315.8,284.3 315.2,277.6 324.5,284.3 345.2,284.9 344.5,277.6 322.5,271.6 
	316.5,258.9 "/>
<path class="st1" d="M219.2,43.8c0,0-5-12.3-3.3-16c1.7-3.7,14-6,20-10.3s10-11.7,12.3-16s0.7,7.7-1.7,11.7c-2.3,4,7-4.7,7-8.7
	s3.3,7.3,1,10c-2.3,2.7,2.3,2,4,1c1.7-1-1,5.3-3,7.3s0.3-2,2.7,0c2.3,2-9,14.3-9,14.3l-21.3,11.3L219.2,43.8z"/>
<path class="st2" d="M224.5,75.4c0,0,4-3.3,3.7-9.7s-14-18-11.7-22c2.3-4,7.3-3.3,8.3-0.7s6.7-13.3,10-14.7c3.3-1.3,17.7,3,17.7,3
	s3.3,6.3,2.3,14.7s-6.3,19.3-9.3,20.3s-8.3,0-8.3,0l1.3,6.7l7.3,13.7l-16.3-1L224.5,75.4L224.5,75.4"/>
<polygon class="st0" points="204.2,263.3 204.7,287.3 196.2,287.3 195.7,280.4 183.8,287.3 163.3,287.3 165.4,282 186.9,273 
	192.9,263.3 "/>
<path class="st3" d="M236.2,168.8c0,1-31.7,93.5-31.7,93.5l-12.7-0.2l11.3-50l17.3-49.3L236.2,168.8z"/>
<path class="st3" d="M259.2,162.8c0,0,30.7,34,34.7,39.3s1,30,12.3,57l14-2.3l-9-66l-47.3-49.3L259.2,162.8z"/>
<path class="st2" d="M257.8,86.8c0,0,17,17.3,21.3,18.7c4.3,1.3,33.3-0.7,33.3-0.7l7,6.7c0,0-13.3,5.3-24.3,5
	c-11-0.3-19.7-0.7-19.7-0.7l-22.3-19.7L257.8,86.8z"/>
<path class="st4" d="M212,173.8c0,0-38.8,5.4-44.9,25.8s13.3,38.7,21.4,25.8s-11.2-51.7-41.8-24.8s-41.2,69.5-25.9,87.2
	c15.3,17.8,59.7-8.1,35.2-25.8s-45.1,10.6-143.2,17.2c-50,3.3,74.7,9.3,74.7,9.3"/>
<path class="st5" d="M197.2,98.8l14.3,6.3l5.3-7.7l6,44.3l42.7-5.3l-8.7-36.7l6.3-10.7l-13.3-17.3l-11.3,1.3c0,0,4,7.7-1.7,8.7
	c-5.7,1-12.3-6.3-12.3-6.3l-10.7,1.7L197.2,98.8z"/>
<g>
	<path class="st6" d="M287.2,147.5c2,7.6-18.8,8.2-21.7,12.1c-2.9,3.9-10.2,31.3-30.6,30c-23.7-1.5-34.7-17-31.3-37.5
		c4.9-29.5,29.7-16,42.3-25.1s5.3-17,13.9-22.7c8.6-5.7,12.4-9.4,15.6-6.3c3.2,3.1-10,15.5-11.9,18.9c-1.9,3.4-2.2,13.8,1.5,19.8
		C268.5,142.8,285.5,141.2,287.2,147.5z"/>
	<path class="st0" d="M254.4,138.9l6,8.9c0.4,0.5,1.1,0.6,1.6,0.2l101.5-87.3c0.4-0.4-0.1-1.8-0.5-2.2l-1.5-1.7
		c-1-1.1-2.5-2-3.6-1.1L253.1,136C252.6,136.4,254.1,138.4,254.4,138.9z"/>
	<path class="st0" d="M217.4,163.6l1.8-2.4c0.4-0.6,1.3-0.6,1.7,0l9.2,13.6c0.4,0.5,0.2,1.3-0.4,1.6l-2.9,1.5
		c-0.5,0.3-1.1,0.1-1.4-0.4l-8-12.7C217.1,164.5,217.1,164,217.4,163.6z"/>
	<polyline class="st7" points="220.2,164.9 358.9,57.3 359.9,58.5 223,168.2 	"/>
	<line class="st7" x1="225.6" y1="172.7" x2="361.2" y2="59.8"/>
	<path class="st8" d="M354.6,51.6l9.4,13.6c0,0,14.8-18,15.5-23.6s-3.7-13.2-7.2-8.8c-3.5,4.4-4.8,15.1-4.8,15.1L354.6,51.6z"/>
</g>
<path class="st2" d="M329.5,107.8c2.5-6-1.3-17.7-2.3-16.3c-1,1.3-0.3,9-0.3,9s-3-10.3-5-9c-2,1.3,0.7,9,0.7,9s-5.3-8-6.3-7
	s3,10.3,3,10.3s-6-8-7.3-6s1.7,8.8,3.8,11.5C318.8,113.3,326.2,115.6,329.5,107.8z"/>
<path class="st2" d="M207.8,109.8c0,0-3.5,13-2,17c1.5,4,25.5,12.5,27.5,12.5s7.5-3.7,12.8-4.3c5.3-0.7,6.7,0.7,6.7,0.7
	s0,0.9-1.5,2.4s-7,0.5-7,1.3s1.5,3,3.5,3s2,0,2,0s2.5-2.8,4.8-3.3s2.5,2.5,1.3,4s-6.5,3.5-6.5,3.5s7,4,7.5,5.3s-1.3,4.3-2.3,3.8
	s-7.3-5.8-7.3-5.8s6.3,5.3,6.3,7s-0.3,3.8-3.3,2s-6.8-7.3-6.8-7.3s4.3,6,3.3,7.8s-3.8-3.8-7-5.8s-9.5-6-9.5-6s-27.5-7.8-29.8-10.3
	s-6.5-14-4.5-22.8s5.3-14.3,5.3-14.3l8.5,3.5L207.8,109.8z"/>
<path class="st7" d="M235.8,36.1c2.7-0.7,5.3,2.3,5.3,2.3"/>
<path class="st7" d="M249.7,40.1c0.8-0.3,2-2.2,3.5-1.2s1.8,1.5,1.8,1.5"/>
<path class="st7" d="M246.5,39.1c0,0,3.3,6.2,2.7,7.2s-5.3,1-5.3,1"/>
<path class="st9" d="M236.2,46.3c0.3,0.5,4.3,5.5,6.3,6.7c2,1.2,6.3,1.4,6.3,1.4l-4,6.8c0,0-5-2.9-7-6.5c-1.4-2.6-2.3-8.9-2.3-8.9"
	/>
<path class="st7" d="M221.8,44.1c0,0-3.3-0.3-3.3,1s2.7,4.3,2.7,4.3"/>
<polygon class="st10" points="243.8,116.6 235.9,109.6 225.7,112.2 229.9,102.5 224.3,93.6 234.8,94.6 241.6,86.5 243.9,96.8 
	253.6,100.8 244.6,106.1 "/>
</svg>
