<?xml version="1.0" encoding="utf-8"?>
<svg version="1.1" class="icon_click" id="guitar" xmlns="http://www.w3.org/2000/svg" xmlns:xlink="http://www.w3.org/1999/xlink" x="0px" y="0px"
	 viewBox="0 0 72 72" style="enable-background:new 0 0 72 72;" xml:space="preserve">
<style type="text/css">
	.st0{fill:#5E2384;}
	.st1{fill:none;stroke:#FDB914;stroke-width:2.3;stroke-linecap:round;stroke-linejoin:round;stroke-miterlimit:1;}
</style>
<circle id="background" class="st0" cx="36" cy="36" r="36"/>
<path id="iconStroke" class="st1" d="M24.2,35.1c1.8-3.2,4.1,4.7,9.6,7.1c5.5,2.4,9.7-1.7,11.7,0c2,1.7-3,5.5-3,8.1
	s5.1,6.9,3.4,11.1c-2.2,5.8-16.6,6.6-20.2,0c-3.1-5.6,4.5-8.5,4.5-11.7C30.3,46.5,21.4,40.1,24.2,35.1z M37.7,54.9V8.4l-5.2,9.7
	c0,0,2.4,1.3,2.6,3.5v33.2 M35,60h2.7 M31.1,12.8L28.5,17l1.3-2.1l2.2,1.4 M35.1,5.9l-2.6,4.3l1.3-2L36,9.4"/>
</svg>
