<?xml version="1.0" encoding="utf-8"?>
<!-- Generator: Adobe Illustrator 22.0.1, SVG Export Plug-In . SVG Version: 6.00 Build 0)  -->
<svg version="1.1" id="Layer_1" xmlns="http://www.w3.org/2000/svg" xmlns:xlink="http://www.w3.org/1999/xlink" x="0px" y="0px"
	 viewBox="0 0 84 84" style="enable-background:new 0 0 84 84;" xml:space="preserve">
<style type="text/css">
	.st0{fill:#F19620;}
	.st1{fill:#E91989;}
	.st2{fill:none;stroke:#E91989;stroke-width:2.3;stroke-linecap:round;stroke-linejoin:round;stroke-miterlimit:1;}
</style>
<g>
	<ellipse transform="matrix(0.9239 -0.3827 0.3827 0.9239 -12.8756 19.2698)" class="st0" cx="42" cy="42" rx="39" ry="39"/>
	<path class="st1" d="M42,6c19.9,0,36,16.1,36,36S61.9,78,42,78C22.1,78,6,61.9,6,42S22.1,6,42,6 M42,0C18.8,0,0,18.8,0,42
		s18.8,42,42,42s42-18.8,42-42S65.2,0,42,0L42,0z"/>
</g>
<g id="guitar_x5F_group_1_">
	<path class="st2" d="M30.2,41.1c1.8-3.2,4.1,4.7,9.6,7.1c5.5,2.4,9.7-1.7,11.7,0c2,1.7-3,5.5-3,8.1s5.1,6.9,3.4,11.1
		c-2.2,5.8-16.6,6.6-20.2,0c-3.1-5.6,4.5-8.5,4.5-11.7C36.3,52.5,27.4,46.1,30.2,41.1z"/>
	<path class="st2" d="M43.7,60.9V14.4l-5.2,9.7c0,0,2.4,1.3,2.6,3.5v33.2"/>
	<line class="st2" x1="41" y1="66" x2="43.7" y2="66"/>
	<polyline class="st2" points="38,22.3 35.8,20.9 34.5,23 37.1,18.8 	"/>
	<polyline class="st2" points="42,15.4 39.7,14.1 38.5,16.2 41.1,11.9 	"/>
</g>
</svg>
