<?xml version="1.0" encoding="utf-8"?>
<!-- Generator: Adobe Illustrator 22.0.1, SVG Export Plug-In . SVG Version: 6.00 Build 0)  -->
<svg version="1.1" id="Layer_1" xmlns="http://www.w3.org/2000/svg" xmlns:xlink="http://www.w3.org/1999/xlink" x="0px" y="0px"
	 viewBox="0 0 72 72" style="enable-background:new 0 0 72 72;" xml:space="preserve">
<style type="text/css">
	.st0{fill:#F9B617;}
	.st1{fill:none;stroke:#E91989;stroke-width:2.3;stroke-linecap:round;stroke-linejoin:round;stroke-miterlimit:1;}
</style>
<circle class="st0" cx="36" cy="36" r="36"/>
<g id="guitar_x5F_group_1_">
	<path class="st1" d="M24.2,35.1c1.8-3.2,4.1,4.7,9.6,7.1c5.5,2.4,9.7-1.7,11.7,0c2,1.7-3,5.5-3,8.1s5.1,6.9,3.4,11.1
		c-2.2,5.8-16.6,6.6-20.2,0c-3.1-5.6,4.5-8.5,4.5-11.7C30.3,46.5,21.4,40.1,24.2,35.1z"/>
	<path class="st1" d="M37.7,54.9V8.4l-5.2,9.7c0,0,2.4,1.3,2.6,3.5v33.2"/>
	<line class="st1" x1="35" y1="60" x2="37.7" y2="60"/>
	<polyline class="st1" points="32,16.3 29.8,14.9 28.5,17 31.1,12.8 	"/>
	<polyline class="st1" points="36,9.4 33.7,8.1 32.5,10.2 35.1,5.9 	"/>
</g>
</svg>
