<?xml version="1.0" encoding="utf-8"?>
<svg version="1.1" class="icon_click" id="headphones" xmlns="http://www.w3.org/2000/svg" xmlns:xlink="http://www.w3.org/1999/xlink" x="0px" y="0px"
	 viewBox="0 0 72 72" style="enable-background:new 0 0 72 72;" xml:space="preserve">
<style type="text/css">
	.st0{fill:#5E2384;}
	.st1{fill:none;stroke:#FDB914;stroke-width:2.3;stroke-miterlimit:10;}
</style>
<circle id="background" class="st0" cx="36" cy="36" r="36"/>
<path id="iconStroke" class="st1" d="M26.7,52.9c0,0,0,2.2-2.8,2.2S21,52.9,21,52.9V37.8c0,0,0-2.6,2.8-2.6
	s2.8,2.6,2.8,2.6V52.9z M21,38.8c0,0-9.2-1.7-9.2,6.9s9.2,7.2,9.2,7.2 M45.3,52.9c0,0,0,2.2,2.8,2.2s2.8-2.2,2.8-2.2V37.8
	c0,0,0-2.6-2.8-2.6s-2.8,2.6-2.8,2.6V52.9z M51,52.9c0,0,9.2,1.4,9.2-7.2S51,38.8,51,38.8 M54.3,38.7c0,0,2.6-20.9-18.4-20.9
	c-21.4,0-18.4,20.9-18.4,20.9 M50.9,18.9c0,0-4.7-5.4-15.1-5.4c-10.4,0.1-14.9,5.4-14.9,5.4"/>
</svg>
