<?xml version="1.0" encoding="utf-8"?>
<!-- Generator: Adobe Illustrator 22.0.1, SVG Export Plug-In . SVG Version: 6.00 Build 0)  -->
<svg version="1.1" id="Layer_1" xmlns="http://www.w3.org/2000/svg" xmlns:xlink="http://www.w3.org/1999/xlink" x="0px" y="0px"
	 viewBox="0 0 120.7 120.7" style="enable-background:new 0 0 120.7 120.7;" xml:space="preserve">
<style type="text/css">
	.st0{fill:#BC61A6;}
	.st1{fill:none;stroke:#FAB616;stroke-width:3.8573;stroke-linecap:round;stroke-linejoin:round;stroke-miterlimit:1;}
</style>
<circle class="st0" cx="60.4" cy="60.4" r="60.4"/>
<g id="piano_x5F_group">
	<path class="st1" d="M26,50.8v37.1c0,3.1,2.5,5.6,5.6,5.6H89c3.1,0,5.6-2.5,5.6-5.6V50.8H37.5H26z"/>
	<path class="st1" d="M56.9,77.5c0,5.6-6.7,5.4-6.7,0l0-26.7h6.7L56.9,77.5z"/>
	<path class="st1" d="M71.3,77.5c0,5.6-6.7,5.4-6.7,0l0-26.7h6.7L71.3,77.5z"/>
	<path class="st1" d="M42.5,77.5c0,5.6-6.7,5.4-6.7,0l0-26.7h6.7L42.5,77.5z"/>
	<line class="st1" x1="39.2" y1="81.6" x2="39.2" y2="93.5"/>
	<line class="st1" x1="53.6" y1="81.6" x2="53.6" y2="93.5"/>
	<line class="st1" x1="68" y1="81.6" x2="68" y2="93.5"/>
	<path class="st1" d="M85.9,77.5c0,5.6-6.7,5.4-6.7,0l0-26.7h6.7L85.9,77.5z"/>
	<line class="st1" x1="82.5" y1="81.6" x2="82.5" y2="93.5"/>
	<path class="st1" d="M26,50.8c0,0-1.3-26.7,18.2-29.2C64.6,19,64.6,36,82.5,35.9c14.8-0.1,12,15,12,15"/>
</g>
</svg>
