<?xml version="1.0" encoding="utf-8"?>
<!-- Generator: Adobe Illustrator 22.0.1, SVG Export Plug-In . SVG Version: 6.00 Build 0)  -->
<svg version="1.1" id="Layer_1" xmlns="http://www.w3.org/2000/svg" xmlns:xlink="http://www.w3.org/1999/xlink" x="0px" y="0px"
	 viewBox="0 0 72 72" style="enable-background:new 0 0 72 72;" xml:space="preserve">
<style type="text/css">
	.st0{fill:#F9B617;}
	.st1{fill:none;stroke:#E91989;stroke-width:2.3;stroke-linecap:round;stroke-linejoin:round;stroke-miterlimit:1;}
</style>
<circle class="st0" cx="36" cy="36" r="36"/>
<g id="piano_x5F_group_1_">
	<path class="st1" d="M15.5,30.3v22.1c0,1.8,1.5,3.3,3.3,3.3h34.3c1.8,0,3.3-1.5,3.3-3.3V30.3h-34H15.5z"/>
	<path class="st1" d="M33.9,46.2c0,3.3-4,3.2-4,0l0-15.9h4L33.9,46.2z"/>
	<path class="st1" d="M42.5,46.2c0,3.3-4,3.2-4,0l0-15.9h4L42.5,46.2z"/>
	<path class="st1" d="M25.3,46.2c0,3.3-4,3.2-4,0l0-15.9h4L25.3,46.2z"/>
	<line class="st1" x1="23.3" y1="48.7" x2="23.3" y2="55.7"/>
	<line class="st1" x1="31.9" y1="48.7" x2="31.9" y2="55.7"/>
	<line class="st1" x1="40.5" y1="48.7" x2="40.5" y2="55.7"/>
	<path class="st1" d="M51.2,46.2c0,3.3-4,3.2-4,0l0-15.9h4L51.2,46.2z"/>
	<line class="st1" x1="49.2" y1="48.7" x2="49.2" y2="55.7"/>
	<path class="st1" d="M15.5,30.3c0,0-0.8-15.9,10.8-17.4c12.2-1.6,12.2,8.5,22.9,8.5c8.8-0.1,7.2,8.9,7.2,8.9"/>
</g>
</svg>
