<?xml version="1.0" encoding="utf-8"?>
<!-- Generator: Adobe Illustrator 22.0.1, SVG Export Plug-In . SVG Version: 6.00 Build 0)  -->
<svg version="1.1" id="Layer_1" xmlns="http://www.w3.org/2000/svg" xmlns:xlink="http://www.w3.org/1999/xlink" x="0px" y="0px"
	 viewBox="0 0 184.6 284.5" style="enable-background:new 0 0 184.6 284.5;" xml:space="preserve">
<style type="text/css">
	.st0{fill:#862A87;stroke:#000000;stroke-linecap:round;stroke-linejoin:round;stroke-miterlimit:10;}
	.st1{fill:#FAB616;stroke:#000000;stroke-linecap:round;stroke-linejoin:round;stroke-miterlimit:10;}
	.st2{fill:#FFDEAE;stroke:#000000;stroke-linecap:round;stroke-linejoin:round;stroke-miterlimit:10;}
	.st3{fill:#398ACA;stroke:#000000;stroke-linecap:round;stroke-linejoin:round;stroke-miterlimit:10;}
	.st4{fill:#EA1088;stroke:#000000;stroke-linecap:round;stroke-linejoin:round;stroke-miterlimit:10;}
	.st5{fill:none;stroke:#000000;stroke-linecap:round;stroke-linejoin:round;stroke-miterlimit:10;}
	.st6{fill:#172C53;stroke:#000000;stroke-linecap:round;stroke-linejoin:round;stroke-miterlimit:10;}
	.st7{fill:#A7A9AC;stroke:#A7A9AC;stroke-width:3;stroke-linecap:round;stroke-linejoin:round;stroke-miterlimit:10;}
	.st8{fill:none;stroke:#A7A9AC;stroke-width:3;stroke-linecap:round;stroke-linejoin:round;stroke-miterlimit:10;}
	.st9{fill:#862A87;}
</style>
<polygon class="st0" points="120,257.2 119.3,281.8 109.3,281.8 110,275.2 100.6,281.8 80,282.5 80.6,275.2 102.6,269.2 
	108.6,256.5 "/>
<path class="st1" d="M139.9,37.4c0,0,3.3-7.8,2.3-11.8c-3.3-13.8-12-10.7-19.3-12.3c-10.3-2.3-6.2-7.6-6.8-10.8
	c-1-5.5-15.5-0.3-15.8,15.8c0,2.8,9.4,12.3,9.4,12.3L131.2,42L139.9,37.4z"/>
<path class="st2" d="M134.5,69.7c0,0-4-3.3-3.7-9.7c0.3-6.3,14-18,11.7-22c-2.3-4-7.3-3.3-8.3-0.7s-6.7-13.3-10-14.7
	c-3.3-1.3-17.7,3-17.7,3s-3.3,6.3-2.3,14.7s6.3,19.3,9.3,20.3s8.3,0,8.3,0l-1.3,6.7L113.1,81l16.3-1L134.5,69.7L134.5,69.7"/>
<polygon class="st0" points="147.9,258.8 148.4,282.8 139.8,282.8 139.3,275.9 127.5,282.8 106.9,282.8 109.1,277.6 130.6,268.5 
	136.5,258.8 "/>
<path class="st3" d="M125,142.9c0,0-12,45.1-14,51.5c-2,6.4,10.6,34.2,8.8,63.5l-14,2.4l-13.2-65.3l14.4-62.6L125,142.9z"/>
<path class="st3" d="M142.5,140.9c0,0-2.5,48.6-4.5,55c-2,6.4,10.6,34.2,8.8,63.5l-14,2.4l-13.2-65.3l6.9-67.1L142.5,140.9z"/>
<path class="st2" d="M101.3,87.8c0,0-8.9,22.6-12.4,25.5c-2.8,2.3-21.1,8.9-28.2,11.4c-2.2-1.2-6.4,0-8.7,0.7
	c-3.3,1-8.6,5.9-8.7,8.3s9.7-3.2,9.7-3.2s-8.6,5.4-8.4,6.8c0.3,1.4,9.2-2.1,9.2-2.1s-6.6,4.8-5.7,7s9.2-4.5,9.2-4.5
	s-5.7,4.9-5.6,6.5c0.1,1.6,10.2-4.3,11.9-10.5c4.6-0.7,10.1-1.9,14.7-4c10-4.6,17.9-8.3,17.9-8.3l12.9-26.8L101.3,87.8z"/>
<path class="st4" d="M165.5,84.9l-12.7,9.2l-6.8-6.4l2.3,58.9l-44-6.3L110,91l-2.8,7.8l-10.8-7.2l11-19.5l12.3-3.7
	c0,0-2.3,8.3,3.5,8.1c5.8-0.2,10.7-8.8,10.7-8.8l10.8-0.6L165.5,84.9z"/>
<path class="st2" d="M153.5,94.3c0,0,6.2,12,5.5,16.2c-0.6,4.2-22.3,17.6-24.3,18c-2,0.4-8.1-2-13.5-1.5c-5.4,0.5-6.4,2.1-6.4,2.1
	s0.2,0.9,2,2c1.8,1.2,6.9-1,7.1-0.2c0.2,0.7-0.8,3.2-2.8,3.7c-2,0.4-2,0.4-2,0.4s-4.9,2.7-6.4,4.5c-2.5,3.2-1.7,3.3-0.2,4.5
	s7.9-4.9,7.9-4.9s-6,5.4-6.2,6.7c-0.2,1.3,2.1,3.9,3,3.2s5.9-7.1,5.9-7.1s-5,6.4-4.6,8.2c0.4,1.7,1,3.6,3.6,1.3s5.1-8.5,5.1-8.5
	s-2.9,6.8-1.5,8.3s2.9-4.5,5.6-7.1c2.8-2.6,8-7.9,8-7.9s25.3-13.4,26.9-16.3c1.7-2.9,3.4-15.1-0.4-23.2s-4-9.2-4-9.2l-7,5
	L153.5,94.3z"/>
<path class="st5" d="M123.6,31.4c0.2,2.1-4.1,3.3-5.6,1.1"/>
<path class="st5" d="M109.5,34.2c-0.6,0.8-1.5,0.7-2.6,1.2c-0.5,0.2-1.7-1.1-1.7-1.1"/>
<path class="st5" d="M112.6,33.2c0,0-3.3,6.2-2.7,7.2s5.3,1,5.3,1"/>
<path class="st5" d="M137.3,38.2c0,0,3.3-0.3,3.3,1c0,1.3-2.7,4.3-2.7,4.3"/>
<path class="st1" d="M106.2,45.6l6.8,8.2c4.5,2.7,10.4,1.6,13.5-2.7l7-13.8c0,0,0.3,9.8-3.7,18c-2.2,4.5-5,10-11,8.7
	s-11.3-8.4-12.5-14.7c-0.6-3-0.5-3.3-0.5-3.3L106.2,45.6z"/>
<path class="st1" d="M109.5,51.4c0,0,1.8-6,5.3-7s14.8,3.3,13,6.8c-1,1.9-9.8-4.5-12.3-3.3s-5.8,6.3-5.8,6.3L109.5,51.4z"/>
<path class="st6" d="M114.7,52.6l3.5-0.8c2-1.3,1.3-1.5,1.3-1.5"/>
<rect x="0.6" y="138.4" transform="matrix(0.9972 7.480274e-02 -7.480274e-02 0.9972 10.9831 -6.5014)" class="st1" width="183.3" height="10"/>
<polygon class="st1" points="126.9,159 91.8,156.4 55.7,153.7 56.3,146.4 127.4,151.7 "/>
<line class="st7" x1="93.7" y1="279.7" x2="94.3" y2="155.7"/>
<path class="st8" d="M40.3,280.4l52.7-40l50,42.7c0,0-47.3-27.3-49.3-26.7C91.7,257,40.3,280.4,40.3,280.4z"/>
<polygon class="st9" points="126.7,82.2 131.3,91.6 141.7,93.1 134.2,100.5 136,110.8 126.7,106 117.3,110.8 119.1,100.5 
	111.6,93.1 122,91.6 "/>
</svg>
