<?xml version="1.0" encoding="utf-8"?>
<svg version="1.1" id="mandolin" xmlns="http://www.w3.org/2000/svg" xmlns:xlink="http://www.w3.org/1999/xlink" x="0px" y="0px"
	 viewBox="0 0 72 72" style="enable-background:new 0 0 72 72;" xml:space="preserve">
<style type="text/css">
	.st0{fill:#5E2384;}
	.st1{fill:none;stroke:#FDB914;stroke-width:2.3;stroke-linecap:round;stroke-linejoin:round;stroke-miterlimit:1;}
</style>
<circle id="background" class="st0" cx="36" cy="36" r="36"/>
<path id="iconStroke" class="st1" d="M51.2,51.2c0,8.4-6.8,15.2-15.2,15.2s-15.2-6.8-15.2-15.2S27.5,32.4,36,32.4
	S51.2,42.8,51.2,51.2z M37.4,42.9V18.2c0,0,1.6-0.3,1.5-5.3c0-2.1,0-6.6-3-6.6c-3.5,0-3,6.4-3,6.4c0,5,1.9,5.4,1.9,5.4v24.7
	 M36,46.9c-2,0-3.6,1.6-3.6,3.6c0,2,1.6,3.6,3.6,3.6s3.6-1.6,3.6-3.6C39.5,48.5,37.9,46.9,36,46.9z M33.6,59.9 M39.5,59.9h-7.2
	 M39,8l3.2,0l0,2.5l0-4.9 M39,15.7l3.2,0l0,2.5l0-4.9 M29.7,5.5v4.9V8h3.2 M29.7,13.2v4.9v-2.5h3.2"/>
</svg>
