<?xml version="1.0" encoding="utf-8"?>
<!-- Generator: Adobe Illustrator 22.0.1, SVG Export Plug-In . SVG Version: 6.00 Build 0)  -->
<svg version="1.1" id="Layer_1" xmlns="http://www.w3.org/2000/svg" xmlns:xlink="http://www.w3.org/1999/xlink" x="0px" y="0px"
	 viewBox="0 0 84 84" style="enable-background:new 0 0 84 84;" xml:space="preserve">
<style type="text/css">
	.st0{fill:#EEC467;}
	.st1{fill:#E91989;}
	.st2{fill:none;stroke:#E91989;stroke-width:2.3;stroke-linecap:round;stroke-linejoin:round;stroke-miterlimit:1;}
</style>
<g>
	<ellipse transform="matrix(0.9732 -0.2298 0.2298 0.9732 -8.5261 10.7732)" class="st0" cx="42" cy="42" rx="39" ry="39"/>
	<path class="st1" d="M42,6c19.9,0,36,16.1,36,36S61.9,78,42,78C22.1,78,6,61.9,6,42S22.1,6,42,6 M42,0C18.8,0,0,18.8,0,42
		s18.8,42,42,42s42-18.8,42-42S65.2,0,42,0L42,0z"/>
</g>
<g id="_x3C_mic_x5F_group_x3E__3_">
	<path class="st2" d="M25,37.1h4.9c0,0-2.8,18.1,12.1,18.1c14.1,0,12.4-18.1,12.4-18.1H59v-4.7v9.4"/>
	<line class="st2" x1="25" y1="42.1" x2="25" y2="32.4"/>
	<path class="st2" d="M48.6,41.2L48.6,41.2c0,10.1-13.3,9.4-13.1,0.3l-0.1-0.3V28l0,0c0-10.6,13.3-10,13.3,0l0,0V41.2z"/>
	<polyline class="st2" points="42,55.2 42,63.8 30.2,63.8 53.8,63.8 	"/>
	<line class="st2" x1="35.4" y1="32.4" x2="39" y2="32.4"/>
	<line class="st2" x1="35.4" y1="37.2" x2="39.1" y2="37.2"/>
	<line class="st2" x1="48.6" y1="32.4" x2="44.9" y2="32.4"/>
	<line class="st2" x1="35.4" y1="27.6" x2="39" y2="27.6"/>
	<line class="st2" x1="48.6" y1="27.6" x2="44.9" y2="27.6"/>
	<line class="st2" x1="48.6" y1="37.2" x2="44.9" y2="37.2"/>
</g>
</svg>
