<?xml version="1.0" encoding="utf-8"?>
<!-- Generator: Adobe Illustrator 22.0.1, SVG Export Plug-In . SVG Version: 6.00 Build 0)  -->
<svg version="1.1" id="Layer_1" xmlns="http://www.w3.org/2000/svg" xmlns:xlink="http://www.w3.org/1999/xlink" x="0px" y="0px"
	 viewBox="0 0 122.2 122.2" style="enable-background:new 0 0 122.2 122.2;" xml:space="preserve">
<style type="text/css">
	.st0{fill:#BC61A6;}
	.st1{fill:none;stroke:#FAB616;stroke-width:3.9032;stroke-linecap:round;stroke-linejoin:round;stroke-miterlimit:1;}
</style>
<circle class="st0" cx="61.1" cy="61.1" r="61.1"/>
<g id="_x3C_mic_x5F_group_x3E_">
	<path class="st1" d="M32.2,52.9h8.3c0,0-4.7,30.7,20.5,30.7c23.8,0,21-30.7,21-30.7h7.8v-8v16"/>
	<line class="st1" x1="32.2" y1="61.2" x2="32.2" y2="44.9"/>
	<path class="st1" d="M72.4,59.8L72.4,59.8c0,17.1-22.5,15.9-22.2,0.5l-0.2-0.5V37.3l0,0c0-18,22.5-17,22.5,0l0,0V59.8z"/>
	<polyline class="st1" points="61.1,83.5 61.1,98.1 41.1,98.1 81.1,98.1 	"/>
	<line class="st1" x1="49.9" y1="44.9" x2="56.1" y2="44.9"/>
	<line class="st1" x1="49.9" y1="53" x2="56.1" y2="53"/>
	<line class="st1" x1="72.3" y1="44.9" x2="66.1" y2="44.9"/>
	<line class="st1" x1="49.9" y1="36.7" x2="56.1" y2="36.7"/>
	<line class="st1" x1="72.3" y1="36.7" x2="66.1" y2="36.7"/>
	<line class="st1" x1="72.4" y1="53" x2="66.1" y2="53"/>
</g>
</svg>
