<?xml version="1.0" encoding="utf-8"?>
<!-- Generator: Adobe Illustrator 22.0.1, SVG Export Plug-In . SVG Version: 6.00 Build 0)  -->
<svg version="1.1" id="Layer_1" xmlns="http://www.w3.org/2000/svg" xmlns:xlink="http://www.w3.org/1999/xlink" x="0px" y="0px"
	 viewBox="0 0 72 72" style="enable-background:new 0 0 72 72;" xml:space="preserve">
<style type="text/css">
	.st0{fill:#F9B617;}
	.st1{fill:none;stroke:#E91989;stroke-width:2.3;stroke-linecap:round;stroke-linejoin:round;stroke-miterlimit:1;}
</style>
<circle class="st0" cx="36" cy="36" r="36"/>
<g id="_x3C_mic_x5F_group_x3E__1_">
	<path class="st1" d="M19,31.1h4.9c0,0-2.8,18.1,12.1,18.1c14.1,0,12.4-18.1,12.4-18.1H53v-4.7v9.4"/>
	<line class="st1" x1="19" y1="36.1" x2="19" y2="26.4"/>
	<path class="st1" d="M42.6,35.2L42.6,35.2c0,10.1-13.3,9.4-13.1,0.3l-0.1-0.3V22l0,0c0-10.6,13.3-10,13.3,0l0,0V35.2z"/>
	<polyline class="st1" points="36,49.2 36,57.8 24.2,57.8 47.8,57.8 	"/>
	<line class="st1" x1="29.4" y1="26.4" x2="33" y2="26.4"/>
	<line class="st1" x1="29.4" y1="31.2" x2="33.1" y2="31.2"/>
	<line class="st1" x1="42.6" y1="26.4" x2="38.9" y2="26.4"/>
	<line class="st1" x1="29.4" y1="21.6" x2="33" y2="21.6"/>
	<line class="st1" x1="42.6" y1="21.6" x2="38.9" y2="21.6"/>
	<line class="st1" x1="42.6" y1="31.2" x2="38.9" y2="31.2"/>
</g>
</svg>
