<?xml version="1.0" encoding="utf-8"?>
<svg version="1.1" class="icon_click" id="pan_x5F_flute" xmlns="http://www.w3.org/2000/svg" xmlns:xlink="http://www.w3.org/1999/xlink" x="0px"
	 y="0px" viewBox="0 0 72 72" style="enable-background:new 0 0 72 72;" xml:space="preserve">
<style type="text/css">
	.st0{fill:#5E2384;}
	.st1{fill:none;stroke:#FDB914;stroke-width:2.3;stroke-linecap:round;stroke-linejoin:round;stroke-miterlimit:1;}
</style>
<circle id="background" class="st0" cx="36" cy="36" r="36"/>
<path id="iconStroke" class="st1" d="M19.7,52.9c0,0,0,2.7-2.9,2.7s-2.9-2.7-2.9-2.7V26.5c0,0,0-2.8,2.9-2.8
	s2.9,2.8,2.9,2.8V52.9z M30.2,25.9c0,0,0-2.3-2.9-2.3s-2.9,2.3-2.9,2.3v21.2c0,0,0,2.2,2.9,2.2s2.9-2.2,2.9-2.2V25.9z M40.3,25.7
	c0,0,0-2-2.9-2s-2.9,2-2.9,2v18.7c0,0,0,1.9,2.9,1.9s2.9-1.9,2.9-1.9V25.7z M50.1,25.5c0,0,0-1.8-2.9-1.8c-2.9,0-2.9,1.8-2.9,1.8
	v17.2c0,0,0,1.8,2.9,1.8c2.9,0,2.9-1.8,2.9-1.8V25.5z M60,25.5c0,0,0-1.8-2.9-1.8c-2.9,0-2.9,1.8-2.9,1.8v16.7c0,0,0,1.7,2.9,1.7
	c2.9,0,2.9-1.7,2.9-1.7V25.5z M10.4,32.3h52.5"/>
</svg>
