<?xml version="1.0" encoding="utf-8"?>
<svg version="1.1" class="icon_click" id="record" xmlns="http://www.w3.org/2000/svg" xmlns:xlink="http://www.w3.org/1999/xlink" x="0px" y="0px"
	 viewBox="0 0 72 72" style="enable-background:new 0 0 72 72;" xml:space="preserve">
<style type="text/css">
	.st0{fill:#5E2384;}
	.st1{fill:none;stroke:#FDB914;stroke-width:2.3;stroke-linecap:round;stroke-linejoin:round;stroke-miterlimit:10;}
</style>
<circle id="background" class="st0" cx="36" cy="36" r="36"/>
<path id="iconStroke" class="st1" d="M36,57.8c-11.9,0-21.5-9.6-21.5-21.5S24.1,14.7,36,14.7s21.5,9.6,21.5,21.5
	S47.9,57.8,36,57.8z M43.9,36.3c0-4.4-3.6-7.9-7.9-7.9s-7.9,3.6-7.9,7.9s3.6,7.9,7.9,7.9S43.9,40.6,43.9,36.3z M36,36.3L36,36.3
	 M19.1,33c-0.5,3.1-0.2,4.8-0.2,4.8 M19.4,41.8c0,0,1.2,4.3,4.8,7.6c4.8,4.4,10.8,4.5,10.8,4.5 M43.9,20.5c0,0-4.9-2.5-9.8-1.6
	 M24.2,42.9c0,0,1.3,3.7,6.5,6.1 M47.8,43.3l1.5,1L46,49.1l-2.1-1.3l3-4.5l0.3-0.4l4.4-6.7V10.7"/>
</svg>
