<?xml version="1.0" encoding="utf-8"?>
<svg version="1.1" class="icon_click" id="saxophone" xmlns="http://www.w3.org/2000/svg" xmlns:xlink="http://www.w3.org/1999/xlink" x="0px" y="0px"
	 viewBox="0 0 72 72" style="enable-background:new 0 0 72 72;" xml:space="preserve">
<style type="text/css">
	.st0{fill:#5E2384;}
	.st1{fill:none;stroke:#FDB914;stroke-width:2.3;stroke-linecap:round;stroke-linejoin:round;stroke-miterlimit:10;}
</style>
<circle id="background" class="st0" cx="36" cy="36" r="36"/>
<path id="iconStroke" class="st1" d="M24.6,8c0,0,1.5,6.9,8.4,6.9s8.6-9.1,14.7-5c7.2,4.9-22.6,37.6-17.9,42.3
	c4.1,4.1,11.6-9.6,16.2-14.9c4.6-5.2,7-6.1,7-6.1v21.6c0,0-1.6-3.1-4.5-2.3C43.6,51.8,31.1,71.2,21,61.1
	C10.5,50.5,44.9,19.2,42,16.9c-2-1.5-5.5,4.5-12.8,1.7 M34.7,40.1l2.9,1.9l-1.5,2.2l3-4.4 M39.1,33l2.9,1.9l-1.5,2.2l3-4.4
	 M43.7,25.9l2.9,1.9l-1.5,2.2l3-4.4"/>
</svg>
