<?xml version="1.0" encoding="utf-8"?>
<!-- Generator: Adobe Illustrator 22.0.1, SVG Export Plug-In . SVG Version: 6.00 Build 0)  -->
<svg version="1.1" id="Layer_1" xmlns="http://www.w3.org/2000/svg" xmlns:xlink="http://www.w3.org/1999/xlink" x="0px" y="0px"
	 viewBox="0 0 157.6 345.1" style="enable-background:new 0 0 157.6 345.1;" xml:space="preserve">
<style type="text/css">
	.st0{fill:#FFDEAE;stroke:#000000;stroke-width:0.8729;stroke-linecap:round;stroke-linejoin:round;stroke-miterlimit:10;}
	.st1{fill:#EA1088;stroke:#000000;stroke-width:0.8729;stroke-linecap:round;stroke-linejoin:round;stroke-miterlimit:10;}
	.st2{fill:#FFDEAE;stroke:#000000;stroke-width:0.979;stroke-linecap:round;stroke-linejoin:round;stroke-miterlimit:10;}
	.st3{fill:#FAB616;stroke:#000000;stroke-width:0.8729;stroke-linecap:round;stroke-linejoin:round;stroke-miterlimit:10;}
	.st4{fill:#398ACA;stroke:#000000;stroke-linecap:round;stroke-linejoin:round;stroke-miterlimit:10;}
	.st5{fill:none;stroke:#000000;stroke-width:0.8729;stroke-linecap:round;stroke-linejoin:round;stroke-miterlimit:10;}
	.st6{fill:#FFFFFF;stroke:#000000;stroke-width:0.8729;stroke-linecap:round;stroke-linejoin:round;stroke-miterlimit:10;}
	.st7{fill:#BC61A6;stroke:#000000;stroke-width:0.8729;stroke-linecap:round;stroke-linejoin:round;stroke-miterlimit:10;}
	.st8{fill:#DA1C5C;stroke:#000000;stroke-width:0.8729;stroke-linecap:round;stroke-linejoin:round;stroke-miterlimit:10;}
	.st9{fill:#398ACA;stroke:#000000;stroke-width:0.8729;stroke-linecap:round;stroke-linejoin:round;stroke-miterlimit:10;}
	.st10{fill:#DA1C5C;stroke:#398ACA;stroke-width:0.8729;stroke-linecap:round;stroke-linejoin:round;stroke-miterlimit:10;}
	.st11{fill:#FFDEAE;stroke:#000000;stroke-width:0.9785;stroke-linecap:round;stroke-linejoin:round;stroke-miterlimit:10;}
</style>
<path class="st0" d="M47.2,208.9l-3.9,35.4c0,0-8.1,14.1-8.9,25.9c-0.7,11.7-3.5,40-3.5,40L25.4,329l13.6,2.5l0.9-32.1l18.3-58.8
	l15.5-30.5l-16.9-12.6L47.2,208.9z"/>
<path class="st0" d="M69.1,203.9L96,251.3c0,0,2.7,20.3,8.3,27.4c5.6,7.1,18.9,27,18.9,27l-0.1,5.8l6.5,13.7l19,3l-21.3-31.4
	l-35.7-98.3L69.1,203.9z"/>
<polygon class="st1" points="122.6,308.5 121.2,331.9 124.2,331.2 126.2,321.9 129.6,331.3 156.5,333.9 157.2,327.2 137.9,323.2 "/>
<path class="st1" d="M26.7,321.2c0,0-4.8,5.7-2.2,14.9s2.9,8.3,4.9,8.6c2,0.3,10-8.8,11.2-12.8s-0.2-12.3-0.7-10.7
	c-0.5,1.6-1.3,7.3-6.1,8C28.9,329.8,26.7,321.2,26.7,321.2z"/>
<path class="st0" d="M96.9,79.6l23.6-53.2c0,0-3.1-16.1-1.7-17.9s3.9,8.7,3.9,8.7s7-8.7,7.9-11.8s1.9-4.9,1.9-4.9s0.2,1.5,0.3,3.5
	c0.2,2.7,0.1,6.3-0.9,7.9c-1.7,2.6,3.2-8.1,3.2-8.1l0.9,3.8l-2.3,6.7l2.9-4.9l2,6.4l-12.8,14l-24.2,71.9L90.8,89.8L96.9,79.6z"/>
<polygon class="st2" points="56.3,92.6 76.2,92.6 78.5,135.4 56.3,110.8 "/>
<path class="st0" d="M25.3,99.9c0,0-18.3,16.3-18.6,19.8c-0.3,3.5,3.5,7,11.1,6.7s38.1-1.7,38.1-1.7l-2.6-13.4c0,0-30,5.2-30.8,4.4
	c-0.9-0.9,9-13.4,9-13.4l10.8,1.2l0.6-3.2L25.3,99.9z"/>
<path class="st3" d="M57.1,103.7l0.6-1.5l-19.2,8.1l0.5,26.5l17.6-9.4c0,0,6.1,11.8,5.2,17.9S19,218.2,19,218.2s33.2,17.7,52.9,15.5
	s42.3-9.8,42.3-9.8s-19.6-54-18.8-66.2s7.4-27,7.8-31.3c0.4-4.4-5.7-18.5-5.7-18.5l12.4-11.5l-11-27.5l-18.3,28l-7.1,20.4
	L57.1,103.7z"/>
<polygon class="st4" points="79.5,155.1 74.6,145.2 63.8,143.7 71.6,136 69.8,125.2 79.5,130.3 89.2,125.2 87.3,136 95.2,143.7 
	84.3,145.2 "/>
<path class="st0" d="M48.9,76.5c0,0-0.1,10.2,1.1,14.6c1.1,3.8,8.5,9.6,13.5,10.5c2.7,0.5,7.1-3.2,8.9-7.4c1.2-2.6,4.2-8.9,3.8-10.9
	c-0.9-5.2-2.1-14.1-8.6-16.3S48.9,76.5,48.9,76.5z"/>
<polyline class="st5" points="54.1,85.7 53.3,91.2 56.3,91.8 "/>
<ellipse transform="matrix(0.8903 -0.4554 0.4554 0.8903 -37.2147 37.8908)" class="st6" cx="60" cy="96.2" rx="2" ry="2.6"/>
<path class="st5" d="M57.6,81.4c0,0,0.9,0.9,2.4,0.4c1.5-0.4,2.8-2.6,2.8-2.6"/>
<path class="st7" d="M62,69c0,0,10.7,5.5,11.1,10.3c0.4,4.8-4.3,20.8-3.4,28.3C70.6,115,81.1,135,85,135.5c3.9,0.4,9.2-8.3,9.2-8.3
	L86.3,115l8.9,9.7l4.6-9.3l-8.5-6.1c0,0-9.8-11.3-5-5.2c4.8,6.1,13.2,7.7,13.2,7.7s-8.4-10.4-11-16.5s-1.7-27.5-10.9-34.5
	s-24.9-6.5-28.4-2.2s-9.6,16.6-9.6,22.7c0,6.1,8.3,20.5,8.3,24c0,3.5,2,7.5,2,23.4c0,4.4,0.5,13.1,0.5,13.1l11-8.9
	c0,0,0.5-7.9-2.1-13.6c-2.6-5.7-1.3-9.4-1.3-9.4l0.5-9.9c0,0-6.4-3.9-8.4-9.1c-2-5.2,1.7-7.4,4.9-11.6C57.2,76.4,62,69,62,69z"/>
<path class="st8" d="M8.9,92.5"/>
<path class="st9" d="M8.3,102.9L45,92.7c0,0,3.7-2.6,5.9-0.2c2.2,2.4,2.6,7.4-1.5,7.6s-5.2-1.3-5.2-1.3l-34.5,8.5L8.5,104L8.3,102.9
	z"/>
<line class="st10" x1="8.7" y1="105.3" x2="0.4" y2="108.2"/>
<path class="st11" d="M26.6,92.7l6.3,6.1l-1-5.5l3,6.4l3.3-0.3L35.9,94l4.3,2.9l0.7-5.8c0,0-4-2.9-8.6-1.9S26.6,92.7,26.6,92.7z"/>
</svg>
